#!OML:ASF E:\Mandelcareful walks\Project 1\Capture day 1\Session 1\Subject1.ASF
:FULLY-SPECIFIED
:DEGREES
192
root 6.42535 15.4265 0.643331 -137.832 -84.4295 143.003
lowerback 23.7746 1.97096 0.535037
upperback 7.05679 1.90458 -2.52439
thorax -5.35554 0.699355 -3.55029
lowerneck -31.7833 3.04683 0.64698
upperneck 28.1352 4.11336 -0.466943
head 15.1407 1.67465 0.576143
rclavicle -1.04113e-014 -1.27719e-014
rhumerus 36.7619 41.2275 -66.5088
rradius 119.888
rwrist -63.5165
rhand 0.805101 -22.0205
rfingers 7.12502
rthumb 26.3613 -50.2081
lclavicle -1.04113e-014 -1.27719e-014
lhumerus -12.2291 -20.9009 82.7344
lradius 56.5202
lwrist 21.2776
lhand -24.7797 -11.8798
lfingers 7.12502
lthumb 1.72437 18.093
rfemur -28.0001 -12.0809 2.64892
rtibia 51.9893
rfoot -21.6873 -6.13569
rtoes -12.9904
lfemur -33.7074 13.2134 -12.1207
ltibia 58.1724
lfoot -22.2215 1.36223
ltoes -8.58188
193
root 6.38525 15.4302 0.677978 -140.748 -84.1939 145.654
lowerback 23.6186 2.15926 0.790129
upperback 7.28278 2.175 -2.71881
thorax -4.99221 0.832161 -3.96891
lowerneck -31.7943 3.05736 0.781568
upperneck 27.9941 4.04918 -0.434549
head 15.081 1.67194 0.552679
rclavicle 2.33572e-015 3.55576e-014
rhumerus 36.8447 41.2249 -66.5407
rradius 119.753
rwrist -63.3968
rhand 0.847811 -21.7591
rfingers 7.12502
rthumb 26.4022 -49.9406
lclavicle 2.33572e-015 3.55576e-014
lhumerus -11.9384 -21.0146 82.4311
lradius 56.6593
lwrist 21.4358
lhand -24.3921 -12.0677
lfingers 7.12502
lthumb 2.09867 17.9017
rfemur -27.5898 -11.7862 2.4568
rtibia 51.7959
rfoot -21.7036 -5.90985
rtoes -13.1841
lfemur -33.2116 13.3337 -12.1503
ltibia 58.2959
lfoot -22.5649 1.45466
ltoes -8.12044
194
root 6.37855 15.4244 0.694247 -142.121 -84.4492 146.886
lowerback 23.761 2.17776 1.08292
upperback 7.37328 2.25357 -2.7456
thorax -4.9438 0.869421 -4.19078
lowerneck -31.8252 3.02012 0.79343
upperneck 27.8691 3.98388 -0.416164
head 15.0301 1.65187 0.543661
rclavicle -6.4605e-015 5.97596e-015
rhumerus 36.9257 41.2595 -66.4267
rradius 119.759
rwrist -63.33
rhand 0.512117 -21.5207
rfingers 7.12502
rthumb 26.0808 -49.7501
lclavicle -6.4605e-015 5.97596e-015
lhumerus -11.6537 -20.9967 82.2395
lradius 56.7401
lwrist 21.5423
lhand -24.1159 -12.2544
lfingers 7.12502
lthumb 2.36544 17.7122
rfemur -27.3181 -11.6953 2.62558
rtibia 51.7332
rfoot -21.7681 -6.01573
rtoes -13.3716
lfemur -33.1125 13.3266 -11.9169
ltibia 58.4531
lfoot -22.643 1.26364
ltoes -7.56366
195
root 6.38244 15.4184 0.704816 -140.601 -84.9396 145.554
lowerback 23.64 2.08291 1.26533
upperback 7.35004 2.18342 -2.73185
thorax -4.90669 0.840038 -4.25725
lowerneck -31.7752 2.97142 0.823109
upperneck 27.6865 3.92292 -0.481993
head 14.9402 1.62352 0.495653
rclavicle -1.8077e-014 3.74585e-014
rhumerus 37.0103 41.3365 -66.3551
rradius 119.8
rwrist -63.2845
rhand 0.307187 -21.6528
rfingers 7.12502
rthumb 25.8846 -49.911
lclavicle -1.8077e-014 3.74585e-014
lhumerus -11.5012 -21.0042 82.0921
lradius 56.8824
lwrist 21.6606
lhand -24.0988 -12.3164
lfingers 7.12502
lthumb 2.38193 17.65
rfemur -27.3007 -11.9344 2.81327
rtibia 51.6262
rfoot -21.746 -6.28709
rtoes -13.6308
lfemur -33.5188 13.1387 -11.8169
ltibia 58.5849
lfoot -22.5816 1.01738
ltoes -7.17629
196
root 6.38624 15.4183 0.722108 -135.588 -85.2096 140.741
lowerback 23.423 1.99794 1.13287
upperback 7.36069 2.04844 -2.77574
thorax -4.80122 0.778968 -4.18368
lowerneck -31.9917 2.95263 0.600755
upperneck 27.8344 3.88779 -0.141485
head 15.0343 1.6344 0.671947
rclavicle 1.64991e-014 -7.26806e-015
rhumerus 37.2409 41.4777 -66.2171
rradius 119.775
rwrist -63.2484
rhand 0.528236 -21.8192
rfingers 7.12502
rthumb 26.0962 -50.0463
lclavicle 1.64991e-014 -7.26806e-015
lhumerus -11.424 -20.9096 81.989
lradius 57.0956
lwrist 21.668
lhand -24.202 -12.2522
lfingers 7.12502
lthumb 2.28226 17.7153
rfemur -27.303 -12.3077 2.57118
rtibia 51.557
rfoot -21.7045 -6.41156
rtoes -13.5185
lfemur -33.9425 12.8132 -12.1581
ltibia 58.6772
lfoot -22.5755 0.967702
ltoes -7.35337
197
root 6.37209 15.4222 0.744825 -135.892 -85.2171 140.78
lowerback 23.5265 2.0227 1.01613
upperback 7.57298 2.03744 -2.7311
thorax -4.62871 0.769374 -4.06315
lowerneck -32.2616 3.04646 0.534476
upperneck 27.825 4.0914 -0.229748
head 15.0853 1.69736 0.694304
rclavicle 2.87679e-014 -1.42007e-014
rhumerus 37.9386 41.7015 -65.6553
rradius 119.721
rwrist -63.2941
rhand 0.683077 -21.9629
rfingers 7.12502
rthumb 26.2445 -50.168
lclavicle 2.87679e-014 -1.42007e-014
lhumerus -11.2348 -20.5086 81.9317
lradius 57.1718
lwrist 21.6716
lhand -24.3522 -12.3316
lfingers 7.12502
lthumb 2.13722 17.6374
rfemur -26.8704 -12.1638 2.40015
rtibia 51.4317
rfoot -21.7568 -6.45272
rtoes -13.6116
lfemur -33.6108 12.7349 -12.2119
ltibia 58.7446
lfoot -22.7548 0.996195
ltoes -7.35513
198
root 6.36164 15.4219 0.763581 -138.796 -85.3724 143.496
lowerback 23.7651 2.1979 1.33012
upperback 7.57028 2.31994 -2.83076
thorax -4.70872 0.90606 -4.43771
lowerneck -32.0261 3.04326 1.04804
upperneck 27.7253 3.89166 -0.421275
head 15.0114 1.64429 0.481879
rclavicle -1.91082e-014 -3.15074e-014
rhumerus 37.7833 41.4811 -65.8354
rradius 119.602
rwrist -63.1081
rhand 0.582025 -21.8967
rfingers 7.12502
rthumb 26.1477 -50.1161
lclavicle -1.91082e-014 -3.15074e-014
lhumerus -11.1191 -21.1058 81.6979
lradius 57.1055
lwrist 21.8445
lhand -24.4501 -12.5981
lfingers 7.12502
lthumb 2.04265 17.3718
rfemur -26.5935 -11.9461 2.59082
rtibia 51.2988
rfoot -21.6839 -6.65968
rtoes -14.1678
lfemur -33.4372 12.7224 -11.9445
ltibia 58.8366
lfoot -22.7987 1.00232
ltoes -7.11504
